<svg width="126" height="21" viewBox="0 0 126 21" fill="none" xmlns="http://www.w3.org/2000/svg">
<path d="M118.296 14.4577C119.357 13.4119 120.793 12.6532 120.847 11.7987C120.922 10.6231 120.241 9.08515 119.371 8.23074C117.031 5.93409 113.956 4.77892 110.765 5.03183C107.262 5.30524 103.745 6.03661 100.371 7.05507C97.5544 7.90948 94.8809 9.34489 92.2483 10.7256C81.6973 16.2553 71.3095 15.7427 61.1667 9.80285C52.4932 4.72424 44.2347 5.12752 36.1598 11.0264C34.9966 11.8808 33.7721 12.6532 32.568 13.4597C28.2483 16.3647 23.8945 19.256 18.636 20.0831C12.4116 21.0605 6.48638 20.6573 2.33672 14.9771C0.350326 12.243 -0.187089 9.16717 1.52039 6.07763C3.49318 2.50962 8.70407 1.97646 11.2483 5.15486C11.7653 5.80422 11.3367 7.21912 11.3435 8.27858C10.4864 8.25124 9.62244 8.27858 8.7789 8.16922C7.84012 8.04618 6.49318 7.33532 6.08502 7.71126C5.44556 8.29909 5.0442 9.67981 5.24148 10.5616C6.00339 13.9519 8.73808 15.2506 11.7721 15.7769C16.4116 16.5834 20.7449 15.3531 24.7245 13.0223C28.1667 11.0059 31.4932 8.77072 34.8197 6.5561C43.0578 1.09471 51.6292 0.110436 60.6428 4.4645C62.7857 5.50346 64.9354 6.51508 67.0646 7.58822C73.7313 10.958 80.4728 10.8555 87.2551 8.01884C92.0306 6.02294 96.6905 3.71262 101.554 1.96279C106.793 0.0694241 112.214 -0.0262698 117.541 1.88077C121.534 3.31618 124.459 5.8794 125.364 10.2198C126.105 13.781 123.861 16.973 120.024 18.0325C117.017 18.8664 114.52 17.3422 113.282 14.1227C112.52 12.1473 113.16 10.876 115.003 10.3497C116.847 9.82335 117.207 11.3271 117.548 12.6873C117.643 13.0769 117.861 13.4392 118.289 14.4372L118.296 14.4577Z" fill="#9C6958"/>
</svg>
