<svg width="126" height="21" viewBox="0 0 126 21" fill="none" xmlns="http://www.w3.org/2000/svg">
<g clip-path="url(#clip0_862_3362)">
<path d="M7.70409 14.4577C6.64287 13.4119 5.20749 12.6532 5.15307 11.7987C5.07824 10.6231 5.75851 9.08515 6.62926 8.23074C8.9694 5.93409 12.0442 4.77892 15.2347 5.03183C18.7381 5.30524 22.2551 6.03661 25.6293 7.05507C28.4456 7.90948 31.1191 9.34489 33.7517 10.7256C44.3027 16.2553 54.6905 15.7427 64.8333 9.80285C73.5068 4.72424 81.7653 5.12752 89.8402 11.0264C91.0034 11.8808 92.2279 12.6532 93.432 13.4597C97.7517 16.3647 102.105 19.256 107.364 20.0831C113.588 21.0605 119.514 20.6573 123.663 14.9771C125.65 12.243 126.187 9.16717 124.48 6.07763C122.507 2.50962 117.296 1.97646 114.752 5.15486C114.235 5.80422 114.663 7.21912 114.656 8.27858C115.514 8.25124 116.378 8.27858 117.221 8.16922C118.16 8.04618 119.507 7.33532 119.915 7.71126C120.554 8.29909 120.956 9.67981 120.759 10.5616C119.997 13.9519 117.262 15.2506 114.228 15.7769C109.588 16.5834 105.255 15.3531 101.276 13.0223C97.8333 11.0059 94.5068 8.77072 91.1803 6.5561C82.9422 1.09471 74.3708 0.110436 65.3572 4.4645C63.2143 5.50346 61.0646 6.51508 58.9354 7.58822C52.2687 10.958 45.5272 10.8555 38.7449 8.01884C33.9694 6.02294 29.3095 3.71262 24.4456 1.96279C19.2075 0.0694241 13.7857 -0.0262698 8.45919 1.88077C4.466 3.31618 1.54082 5.8794 0.636063 10.2198C-0.105431 13.781 2.13947 16.973 5.9762 18.0325C8.98301 18.8664 11.4796 17.3422 12.7177 14.1227C13.4796 12.1473 12.8401 10.876 10.9966 10.3497C9.15307 9.82335 8.79253 11.3271 8.45239 12.6873C8.35715 13.0769 8.13947 13.4392 7.7109 14.4372L7.70409 14.4577Z" fill="#9C6958"/>
</g>
<defs>
<clipPath id="clip0_862_3362">
<rect width="125" height="20" fill="white" transform="matrix(-1 0 0 1 125.5 0.5)"/>
</clipPath>
</defs>
</svg>
