<svg width="22" height="16" viewBox="0 0 22 16" fill="none" xmlns="http://www.w3.org/2000/svg">
<path d="M21.9368 7.70864C21.9047 7.63761 21.1283 5.94832 19.4022 4.25543C17.1023 1.99974 14.1973 0.807617 11 0.807617C7.80266 0.807617 4.89775 1.99974 2.59783 4.25543C0.871742 5.94832 0.091658 7.64031 0.0632413 7.70864C0.021545 7.80062 0 7.90016 0 8.00082C0 8.10149 0.021545 8.20103 0.0632413 8.29301C0.0953246 8.36404 0.871742 10.0524 2.59783 11.7453C4.89775 14.0001 7.80266 15.1922 11 15.1922C14.1973 15.1922 17.1023 14.0001 19.4022 11.7453C21.1283 10.0524 21.9047 8.36404 21.9368 8.29301C21.9785 8.20103 22 8.10149 22 8.00082C22 7.90016 21.9785 7.80062 21.9368 7.70864ZM11 13.7538C8.1785 13.7538 5.71358 12.7477 3.67308 10.7645C2.83583 9.94787 2.12353 9.0167 1.55833 7.99992C2.12338 6.98306 2.8357 6.05187 3.67308 5.23538C5.71358 3.2521 8.1785 2.24608 11 2.24608C13.8215 2.24608 16.2864 3.2521 18.3269 5.23538C19.1658 6.05167 19.8797 6.98286 20.4463 7.99992C19.7853 9.21003 16.9061 13.7538 11 13.7538ZM11 3.68454C10.1298 3.68454 9.27907 3.93763 8.55549 4.41181C7.83191 4.88599 7.26795 5.55997 6.93493 6.3485C6.6019 7.13703 6.51477 8.00471 6.68454 8.84181C6.85432 9.67892 7.27338 10.4478 7.88873 11.0514C8.50408 11.6549 9.28808 12.0659 10.1416 12.2324C10.9951 12.3989 11.8798 12.3134 12.6838 11.9868C13.4878 11.6602 14.175 11.1071 14.6585 10.3974C15.1419 9.68776 15.4 8.85343 15.4 7.99992C15.3988 6.85578 14.9348 5.75884 14.1099 4.9498C13.285 4.14077 12.1666 3.68573 11 3.68454ZM11 10.8768C10.4198 10.8768 9.85271 10.7081 9.37033 10.392C8.88794 10.0759 8.51197 9.62656 8.28995 9.10087C8.06793 8.57519 8.00984 7.99673 8.12303 7.43866C8.23621 6.8806 8.51558 6.36798 8.92582 5.96563C9.33605 5.56329 9.85872 5.28929 10.4277 5.17828C10.9967 5.06727 11.5865 5.12425 12.1225 5.34199C12.6585 5.55974 13.1167 5.92848 13.439 6.40159C13.7613 6.8747 13.9333 7.43092 13.9333 7.99992C13.9333 8.76293 13.6243 9.49469 13.0742 10.0342C12.5241 10.5737 11.778 10.8768 11 10.8768Z" fill="white"/>
</svg>
