<svg width="78" height="77" viewBox="0 0 78 77" fill="none" xmlns="http://www.w3.org/2000/svg">
<path d="M3.80726e-07 38.13C1.23736e-06 57.7275 39 38.13 39 38.13C39 38.13 -4.75908e-07 18.5325 3.80726e-07 38.13Z" fill="#EE7E52"/>
<path d="M78 38.13C78 57.7275 39 38.13 39 38.13C39 38.13 78 18.5325 78 38.13Z" fill="#EE7E52"/>
<path d="M19.5001 71.9049C36.472 81.7037 39.0001 38.1299 39.0001 38.1299C39.0001 38.1299 2.52812 62.1062 19.5001 71.9049Z" fill="#EE7E52"/>
<path d="M58.5001 4.355C75.472 14.1538 39.0001 38.13 39.0001 38.13C39.0001 38.13 41.5281 -5.44375 58.5001 4.355Z" fill="#EE7E52"/>
<path d="M58.4999 71.9049C41.528 81.7037 38.9999 38.1299 38.9999 38.1299C38.9999 38.1299 75.4719 62.1062 58.4999 71.9049Z" fill="#EE7E52"/>
<path d="M19.4999 4.355C2.52801 14.1538 38.9999 38.13 38.9999 38.13C38.9999 38.13 36.4719 -5.44375 19.4999 4.355Z" fill="#EE7E52"/>
</svg>
