<svg width="162" height="198" viewBox="0 0 162 198" fill="none" xmlns="http://www.w3.org/2000/svg">
<path d="M14.8364 9.87014L8.57629 2.70426L3.8319 6.84894L10.092 14.0149L0.640981 16.1554L3.16683 22.4683L15.1132 19.7626L19.2516 24.4997L5.94203 27.5142L8.46789 33.8271L24.2728 30.2475L28.6118 35.2143L12.362 38.8947L14.8879 45.2076L33.633 40.9621L38.0268 45.9917L18.1516 50.4931L20.6774 56.806L43.048 51.7394L47.0503 56.3208L24.7702 61.367L27.2961 67.6799L52.0715 62.0685L55.3185 65.7854L33.0384 70.8315L35.5642 77.1444L60.3397 71.5331L64.7264 76.5545L42.4463 81.6007L44.9721 87.9136L69.7476 82.3022L73.0615 86.0957L50.7814 91.1418L53.3073 97.4547L78.0827 91.8434L81.7267 96.0146L59.4466 101.061L61.9724 107.374L86.7479 101.762L91.052 106.689L68.7719 111.735L71.2977 118.048L96.0732 112.437L100.873 117.931L78.5925 122.977L81.1183 129.29L105.894 123.679L109.455 127.755L87.1751 132.801L89.7009 139.114L114.476 133.503L119.056 138.745L99.0061 143.286L101.532 149.599L124.077 144.493L127.392 148.288L110.771 152.053L113.297 158.365L132.414 154.036L136.302 158.487L125.61 160.909L128.136 167.221L141.323 164.235L170.282 197.383L175.026 193.239L146.068 160.09L150.799 147.423L144.882 144.072L141.047 154.342L137.158 149.891L144.016 131.529L138.1 128.178L132.137 144.143L128.821 140.348L136.909 118.693L130.993 115.342L123.8 134.6L119.221 129.358L128.109 105.561L122.193 102.21L114.2 123.611L110.638 119.534L119.526 95.7367L113.61 92.3857L105.617 113.786L100.818 108.292L109.706 84.4951L103.789 81.1442L95.7964 102.545L91.4922 97.6176L100.381 73.8205L94.4641 70.4695L86.471 91.8699L82.8271 87.6987L91.7154 63.9015L85.7989 60.5506L77.8059 81.9509L74.4919 78.1575L83.3802 54.3603L77.4638 51.0094L69.4707 72.4098L65.0841 67.3884L73.9723 43.5912L68.0559 40.2403L60.0629 61.6406L56.8159 57.9238L65.7041 34.1267L59.7877 30.7757L51.7947 52.1761L47.7923 47.5946L55.8179 26.1074L49.9014 22.7565L42.7711 41.8469L38.3773 36.8173L45.1022 18.8125L39.1858 15.4616L33.3561 31.0696L29.0171 26.1028L34.6872 10.922L28.7708 7.57105L23.9959 20.355L19.8576 15.6179L24.1433 4.14326L18.2269 0.792351L14.8364 9.87014Z" fill="#F7EBE7" fill-opacity="0.6"/>
</svg>
