<svg width="32" height="25" viewBox="0 0 32 25" fill="none" xmlns="http://www.w3.org/2000/svg">
<path d="M30.7692 0H1.23077C0.904349 0 0.591298 0.12967 0.360484 0.360484C0.12967 0.591298 0 0.904349 0 1.23077V22.1538C0 22.8067 0.25934 23.4328 0.720968 23.8944C1.1826 24.356 1.8087 24.6154 2.46154 24.6154H29.5385C30.1913 24.6154 30.8174 24.356 31.279 23.8944C31.7407 23.4328 32 22.8067 32 22.1538V1.23077C32 0.904349 31.8703 0.591298 31.6395 0.360484C31.4087 0.12967 31.0957 0 30.7692 0ZM29.5385 22.1538H2.46154V4.02923L15.1677 15.6769C15.3948 15.8854 15.6918 16.001 16 16.001C16.3082 16.001 16.6052 15.8854 16.8323 15.6769L29.5385 4.02923V22.1538Z" fill="#9C6958"/>
</svg>
