<svg width="67" height="67" viewBox="0 0 67 67" fill="none" xmlns="http://www.w3.org/2000/svg">
<circle cx="33.5" cy="33.5" r="32.5" stroke="#9C6958" stroke-width="2"/>
<path d="M48.7692 22H19.2308C18.9043 22 18.5913 22.1297 18.3605 22.3605C18.1297 22.5913 18 22.9043 18 23.2308V44.1538C18 44.8067 18.2593 45.4328 18.721 45.8944C19.1826 46.356 19.8087 46.6154 20.4615 46.6154H47.5385C48.1913 46.6154 48.8174 46.356 49.279 45.8944C49.7407 45.4328 50 44.8067 50 44.1538V23.2308C50 22.9043 49.8703 22.5913 49.6395 22.3605C49.4087 22.1297 49.0957 22 48.7692 22ZM47.5385 44.1538H20.4615V26.0292L33.1677 37.6769C33.3948 37.8854 33.6918 38.001 34 38.001C34.3082 38.001 34.6052 37.8854 34.8323 37.6769L47.5385 26.0292V44.1538Z" fill="#9C6958"/>
</svg>
