<svg width="26" height="26" viewBox="0 0 26 26" fill="none" xmlns="http://www.w3.org/2000/svg">
<path d="M24.986 19.1297C24.7721 20.7557 23.9735 22.2483 22.7395 23.3286C21.5055 24.4089 19.9204 25.0031 18.2803 25.0002C8.75214 25.0002 1.00001 17.248 1.00001 7.71987C0.997071 6.07979 1.59125 4.49472 2.67156 3.26071C3.75187 2.0267 5.24445 1.22813 6.87051 1.01416C7.2817 0.96395 7.6981 1.04807 8.05756 1.25397C8.41701 1.45986 8.70023 1.77649 8.86495 2.15658L11.3994 7.81467V7.82907C11.5255 8.12002 11.5776 8.43768 11.551 8.75366C11.5244 9.06965 11.4199 9.37413 11.247 9.63991C11.2254 9.67231 11.2026 9.70231 11.1786 9.73231L8.68014 12.694C9.57896 14.5204 11.4894 16.414 13.3398 17.3152L16.2607 14.83C16.2894 14.8059 16.3194 14.7834 16.3507 14.7628C16.6162 14.5857 16.9218 14.4776 17.2396 14.4482C17.5575 14.4189 17.8776 14.4693 18.1711 14.5948L18.1867 14.602L23.84 17.1352C24.2208 17.2994 24.5382 17.5823 24.7447 17.9418C24.9513 18.3013 25.036 18.7181 24.986 19.1297Z" stroke="#9C6958" stroke-width="2"/>
</svg>
