<svg width="17" height="16" viewBox="0 0 17 16" fill="none" xmlns="http://www.w3.org/2000/svg">
<path d="M16.5 10V14.6667C16.5 15.0203 16.3595 15.3594 16.1095 15.6095C15.8594 15.8595 15.5203 16 15.1667 16H1.83333C1.47971 16 1.14057 15.8595 0.890524 15.6095C0.640476 15.3594 0.5 15.0203 0.5 14.6667V10C0.5 9.82319 0.570238 9.65362 0.695262 9.52859C0.820287 9.40357 0.989856 9.33333 1.16667 9.33333C1.34348 9.33333 1.51305 9.40357 1.63807 9.52859C1.7631 9.65362 1.83333 9.82319 1.83333 10V14.6667H15.1667V10C15.1667 9.82319 15.2369 9.65362 15.3619 9.52859C15.487 9.40357 15.6565 9.33333 15.8333 9.33333C16.0101 9.33333 16.1797 9.40357 16.3047 9.52859C16.4298 9.65362 16.5 9.82319 16.5 10ZM8.02833 10.4717C8.09025 10.5337 8.16377 10.5828 8.24471 10.6164C8.32564 10.6499 8.41239 10.6672 8.5 10.6672C8.58761 10.6672 8.67436 10.6499 8.75529 10.6164C8.83623 10.5828 8.90975 10.5337 8.97167 10.4717L12.305 7.13833C12.3669 7.07639 12.4161 7.00286 12.4496 6.92193C12.4831 6.841 12.5004 6.75426 12.5004 6.66667C12.5004 6.57907 12.4831 6.49233 12.4496 6.4114C12.4161 6.33047 12.3669 6.25694 12.305 6.195C12.2431 6.13306 12.1695 6.08393 12.0886 6.0504C12.0077 6.01688 11.9209 5.99963 11.8333 5.99963C11.7457 5.99963 11.659 6.01688 11.5781 6.0504C11.4971 6.08393 11.4236 6.13306 11.3617 6.195L9.16667 8.39083V0.666667C9.16667 0.489856 9.09643 0.320287 8.97141 0.195262C8.84638 0.070238 8.67681 0 8.5 0C8.32319 0 8.15362 0.070238 8.0286 0.195262C7.90357 0.320287 7.83333 0.489856 7.83333 0.666667V8.39083L5.63833 6.195C5.51324 6.06991 5.34358 5.99963 5.16667 5.99963C4.98976 5.99963 4.82009 6.06991 4.695 6.195C4.56991 6.32009 4.49963 6.48976 4.49963 6.66667C4.49963 6.84358 4.56991 7.01324 4.695 7.13833L8.02833 10.4717Z" fill="white"/>
</svg>
