<svg width="85" height="85" viewBox="0 0 85 85" fill="none" xmlns="http://www.w3.org/2000/svg">
<path d="M43.5136 84.9882C66.5175 84.4497 85 65.6333 85 42.5C85 19.0279 65.9721 0 42.5 0C19.3667 0 0.550257 18.4825 0.0118504 41.4864L0 85L43.5136 84.9882Z" fill="#EE7E52" fill-opacity="0.4"/>
<g clip-path="url(#clip0_848_39297)">
<path d="M12.3658 42.8638C12.3643 48.283 13.7803 53.5745 16.4728 58.2385L12.1083 74.174L28.4163 69.898C32.9268 72.3536 37.9806 73.6402 43.1163 73.6405H43.1298C60.0835 73.6405 73.8843 59.8448 73.8915 42.888C73.8948 34.6713 70.6978 26.9448 64.8893 21.1318C59.0818 15.3193 51.358 12.1165 43.1285 12.1128C26.1728 12.1128 12.373 25.9078 12.366 42.8638" fill="url(#paint0_linear_848_39297)"/>
<path d="M11.2675 42.854C11.2658 48.4683 12.7325 53.949 15.521 58.78L11 75.2868L27.8927 70.8575C32.5472 73.3952 37.7878 74.7332 43.1203 74.7352H43.134C60.696 74.7352 74.9925 60.4432 75 42.8795C75.003 34.3675 71.691 26.3632 65.675 20.342C59.6582 14.3215 51.6582 11.0035 43.134 11C25.569 11 11.2745 25.29 11.2675 42.854ZM21.3278 57.948L20.697 56.9468C18.0455 52.7308 16.646 47.8587 16.648 42.856C16.6535 28.2573 28.5345 16.38 43.144 16.38C50.219 16.383 56.868 19.141 61.869 24.145C66.8698 29.1495 69.6215 35.802 69.6198 42.8775C69.6133 57.4762 57.732 69.355 43.134 69.355H43.1235C38.3703 69.3525 33.7085 68.076 29.643 65.6637L28.6755 65.09L18.651 67.7183L21.3278 57.948Z" fill="url(#paint1_linear_848_39297)"/>
<path d="M35.1695 29.5369C34.573 28.2111 33.9453 28.1844 33.378 28.1611C32.9135 28.1411 32.3825 28.1426 31.852 28.1426C31.321 28.1426 30.4583 28.3424 29.729 29.1386C28.999 29.9356 26.942 31.8616 26.942 35.7789C26.942 39.6964 29.7953 43.4821 30.193 44.0139C30.5913 44.5446 35.7013 52.8406 43.7943 56.0321C50.5203 58.6844 51.889 58.1569 53.3488 58.0239C54.8088 57.8914 58.0598 56.0984 58.723 54.2391C59.3868 52.3801 59.3868 50.7866 59.1878 50.4536C58.9888 50.1219 58.4578 49.9226 57.6615 49.5246C56.865 49.1264 52.9505 47.2001 52.2208 46.9344C51.4908 46.6689 50.96 46.5364 50.429 47.3336C49.898 48.1296 48.3733 49.9226 47.9085 50.4536C47.4443 50.9859 46.9795 51.0521 46.1835 50.6539C45.3868 50.2544 42.8225 49.4146 39.7803 46.7024C37.4133 44.5919 35.8153 41.9856 35.3508 41.1884C34.8863 40.3924 35.301 39.9609 35.7003 39.5641C36.058 39.2074 36.4968 38.6344 36.8953 38.1696C37.2923 37.7046 37.4248 37.3729 37.6903 36.8419C37.956 36.3104 37.823 35.8454 37.6243 35.4471C37.4248 35.0489 35.8775 31.1111 35.1695 29.5369Z" fill="white"/>
</g>
<defs>
<linearGradient id="paint0_linear_848_39297" x1="3101.27" y1="6218.24" x2="3101.27" y2="12.1128" gradientUnits="userSpaceOnUse">
<stop stop-color="#1FAF38"/>
<stop offset="1" stop-color="#60D669"/>
</linearGradient>
<linearGradient id="paint1_linear_848_39297" x1="3211" y1="6439.68" x2="3211" y2="11" gradientUnits="userSpaceOnUse">
<stop stop-color="#F9F9F9"/>
<stop offset="1" stop-color="white"/>
</linearGradient>
<clipPath id="clip0_848_39297">
<rect width="64" height="64.5" fill="white" transform="translate(11 11)"/>
</clipPath>
</defs>
</svg>
